<?xml version="1.0" encoding="UTF-8" standalone="yes"?>
<svg version="1.2" width="100%" viewBox="0 0 1120 1120" xml:space="preserve" baseProfile="tiny-ps" xmlns="http://www.w3.org/2000/svg">
  <title>bimi-svg-tiny-12-ps</title>
  <path fill="#000000" stroke="none" d="&#xA;M748.000000,1121.000000 &#xA;&#x9;C498.666656,1121.000000 249.833328,1121.000000 1.000000,1121.000000 &#xA;&#x9;C1.000000,747.666687 1.000000,374.333344 1.000000,1.000000 &#xA;&#x9;C374.333344,1.000000 747.666687,1.000000 1121.000000,1.000000 &#xA;&#x9;C1121.000000,374.333344 1121.000000,747.666687 1121.000000,1121.000000 &#xA;&#x9;C996.833313,1121.000000 872.666687,1121.000000 748.000000,1121.000000 &#xA;M292.203339,718.215698 &#xA;&#x9;C292.203339,718.215698 292.156555,718.417297 291.566162,718.523865 &#xA;&#x9;C291.183350,719.361206 290.800507,720.198486 289.895020,721.504639 &#xA;&#x9;C287.430420,725.693237 284.965820,729.881897 282.088470,734.551392 &#xA;&#x9;C281.691071,735.292786 281.293671,736.034119 280.350342,737.030884 &#xA;&#x9;C280.048218,737.700134 279.746124,738.369446 279.002319,739.604004 &#xA;&#x9;C269.489014,754.914429 259.975708,770.224854 250.462402,785.535339 &#xA;&#x9;C251.411713,786.326050 252.361023,787.116760 253.310333,787.907471 &#xA;&#x9;C254.358948,786.065369 255.194382,784.054382 256.495331,782.412170 &#xA;&#x9;C260.707062,777.095825 265.153778,771.966187 269.392731,766.670776 &#xA;&#x9;C277.720886,756.267212 285.970093,745.800476 294.854156,735.064514 &#xA;&#x9;C299.903351,728.709656 304.952545,722.354858 310.652740,715.846802 &#xA;&#x9;C315.948608,708.920532 321.244446,701.994202 327.164368,694.943115 &#xA;&#x9;C332.775116,687.959473 338.385864,680.975830 344.596954,673.696533 &#xA;&#x9;C350.809784,665.818665 357.022644,657.940796 363.875397,649.913452 &#xA;&#x9;C369.597321,642.957886 375.319244,636.002319 381.640503,628.739746 &#xA;&#x9;C387.803345,621.171326 393.966187,613.602905 400.810120,605.939026 &#xA;&#x9;C405.384979,603.291687 406.572723,599.202148 405.883484,594.245544 &#xA;&#x9;C405.503174,591.510620 405.284485,588.753235 405.001587,585.114075 &#xA;&#x9;C404.665527,576.497131 404.501923,567.866760 403.829865,559.276123 &#xA;&#x9;C403.712769,557.779114 401.379944,555.224243 400.197021,555.294373 &#xA;&#x9;C397.612183,555.447388 394.067993,556.226990 392.749115,558.065674 &#xA;&#x9;C386.488678,566.793335 380.843994,575.962646 374.441803,585.375916 &#xA;&#x9;C370.287445,591.912476 366.133118,598.449036 361.678528,605.593506 &#xA;&#x9;C357.423798,612.704041 353.169067,619.814575 348.329529,627.270142 &#xA;&#x9;C345.397156,631.794189 342.365204,636.257812 339.568573,640.864319 &#xA;&#x9;C337.805359,643.768738 336.394348,646.886902 334.262817,650.260864 &#xA;&#x9;C329.816406,657.500732 325.369995,664.740540 320.588470,672.553040 &#xA;&#x9;C315.992584,680.001160 311.396729,687.449341 306.316742,695.356750 &#xA;&#x9;C305.121033,697.136230 303.843384,698.866760 302.745605,700.704651 &#xA;&#x9;C299.908630,705.454102 297.151154,710.251038 294.059052,715.418701 &#xA;&#x9;C294.059052,715.418701 293.956329,715.901489 293.357849,716.086487 &#xA;&#x9;C293.033966,716.763977 292.710114,717.441467 292.203339,718.215698 &#xA;M723.787231,655.011475 &#xA;&#x9;C733.257996,647.894592 742.728760,640.777771 752.199585,633.660889 &#xA;&#x9;C751.800171,633.090759 751.400818,632.520691 751.001465,631.950562 &#xA;&#x9;C747.407043,634.107056 743.769958,636.195984 740.227295,638.434326 &#xA;&#x9;C733.127197,642.920349 726.078674,647.488098 718.302795,652.114624 &#xA;&#x9;C711.884216,656.086975 705.465637,660.059326 698.349121,664.147400 &#xA;&#x9;C691.903564,668.110779 685.458008,672.074158 678.319824,676.140808 &#xA;&#x9;C672.887268,679.441956 667.454773,682.743042 661.325500,686.161194 &#xA;&#x9;C656.529968,689.063782 651.734436,691.966370 646.235107,695.008911 &#xA;&#x9;C635.151062,701.417053 624.066956,707.825195 612.274780,714.206543 &#xA;&#x9;C602.834839,719.437012 593.394958,724.667542 583.253784,730.032898 &#xA;&#x9;C577.177795,733.381714 571.101807,736.730530 564.324829,740.178101 &#xA;&#x9;C560.533691,742.414673 556.742615,744.651306 552.226379,747.021790 &#xA;&#x9;C540.404785,753.145508 528.583191,759.269287 516.055054,765.619263 &#xA;&#x9;C505.375275,771.431030 494.695496,777.242798 483.318390,783.178711 &#xA;&#x9;C474.055359,788.372864 464.792328,793.566956 454.846313,798.849548 &#xA;&#x9;C449.211151,801.828613 443.576019,804.807739 437.231415,807.952698 &#xA;&#x9;C435.836456,809.196960 434.441528,810.441162 433.046570,811.685364 &#xA;&#x9;C434.504028,813.116333 435.720367,815.022217 437.456757,815.903992 &#xA;&#x9;C452.680206,823.634521 468.682556,829.209534 485.346252,832.970947 &#xA;&#x9;C506.534088,837.753479 527.822327,841.569214 549.667175,841.269287 &#xA;&#x9;C559.710144,841.131348 569.758423,841.356323 579.800659,841.194092 &#xA;&#x9;C584.572021,841.117004 589.393005,840.868286 594.090454,840.088379 &#xA;&#x9;C606.814880,837.975586 619.558289,835.875366 632.160828,833.152893 &#xA;&#x9;C654.462036,828.335266 675.914001,821.001770 696.699158,809.923096 &#xA;&#x9;C701.886047,806.988403 707.072998,804.053711 712.879272,800.836731 &#xA;&#x9;C722.296692,794.295471 731.714172,787.754211 741.756653,780.927795 &#xA;&#x9;C747.597900,775.976074 753.439209,771.024414 759.864136,765.800476 &#xA;&#x9;C765.325317,760.230286 770.786499,754.660095 776.833374,748.808655 &#xA;&#x9;C782.243958,742.909973 787.654480,737.011292 793.662292,730.795593 &#xA;&#x9;C796.277832,727.288574 798.893433,723.781555 801.509033,720.274597 &#xA;&#x9;C800.974304,719.700745 800.439575,719.126953 799.904785,718.553162 &#xA;&#x9;C795.258789,721.362671 790.612732,724.172180 785.259155,727.121399 &#xA;&#x9;C770.846558,733.455566 756.433960,739.789734 741.244202,746.170166 &#xA;&#x9;C737.954712,747.183533 734.642578,748.129272 731.379639,749.221924 &#xA;&#x9;C716.597046,754.172241 701.828369,759.164124 686.272400,764.187195 &#xA;&#x9;C671.851990,768.801636 657.431580,773.416016 642.229370,778.100098 &#xA;&#x9;C640.792297,778.489075 639.332703,778.809998 637.921570,779.277283 &#xA;&#x9;C618.962952,785.555176 600.011108,791.853577 580.287048,798.200867 &#xA;&#x9;C574.901550,800.000488 569.515991,801.800049 564.051697,802.765320 &#xA;&#x9;C564.021912,802.487915 563.992126,802.210449 564.446411,801.413269 &#xA;&#x9;C576.361084,796.716675 588.275757,792.020081 600.950378,787.257019 &#xA;&#x9;C604.452759,785.893311 607.959229,784.539917 611.456848,783.163940 &#xA;&#x9;C623.372192,778.476318 635.284424,773.780640 647.941711,769.129272 &#xA;&#x9;C664.350159,762.850830 680.758545,756.572449 697.917664,750.210510 &#xA;&#x9;C702.942627,748.112854 707.967651,746.015198 713.741516,744.053772 &#xA;&#x9;C723.537537,740.436462 733.333496,736.819153 743.884766,733.150024 &#xA;&#x9;C748.332764,731.357300 752.935974,729.869202 757.192688,727.700867 &#xA;&#x9;C763.652588,724.410339 769.871826,720.647217 776.919312,717.095520 &#xA;&#x9;C777.824646,716.741516 778.800171,716.505432 779.624695,716.015442 &#xA;&#x9;C789.757507,709.993164 799.868286,703.933777 810.427856,697.855530 &#xA;&#x9;C810.515747,697.736694 810.695374,697.531311 810.677490,697.512390 &#xA;&#x9;C810.483398,697.306824 810.258240,697.130554 810.010620,697.005859 &#xA;&#x9;C810.010620,697.005859 810.062195,696.962341 810.097412,696.287415 &#xA;&#x9;C812.101074,693.907166 814.104736,691.526917 816.689697,688.789856 &#xA;&#x9;C818.555908,685.573547 820.422058,682.357239 822.828247,678.707947 &#xA;&#x9;C824.880066,674.470276 826.931885,670.232544 829.541687,665.571045 &#xA;&#x9;C831.332275,661.388367 833.122864,657.205627 835.249146,652.382507 &#xA;&#x9;C837.137207,647.593628 839.025269,642.804688 841.248596,637.354736 &#xA;&#x9;C843.492920,630.570007 845.737244,623.785217 848.549255,616.535156 &#xA;&#x9;C849.739014,611.359070 850.928772,606.182983 852.735596,600.628662 &#xA;&#x9;C855.272095,591.294495 857.808594,581.960327 860.345093,572.626160 &#xA;&#x9;C859.759705,572.304993 859.174316,571.983826 858.588867,571.662659 &#xA;&#x9;C853.575073,575.026184 848.538513,578.356323 843.552490,581.760620 &#xA;&#x9;C834.684814,587.815125 825.847778,593.914429 816.304749,600.087708 &#xA;&#x9;C809.202271,605.050293 802.099854,610.012878 794.298035,615.068726 &#xA;&#x9;C783.215027,622.058838 772.132019,629.048950 760.406982,636.293579 &#xA;&#x9;C751.949585,641.247070 743.492249,646.200562 734.330322,651.189148 &#xA;&#x9;C730.549133,653.132019 726.767944,655.074890 722.897400,656.378662 &#xA;&#x9;C722.962402,655.954224 723.027466,655.529724 723.787231,655.011475 &#xA;M226.922897,750.471313 &#xA;&#x9;C224.389694,755.518066 221.856491,760.564819 218.739746,765.861145 &#xA;&#x9;C206.218704,791.238525 192.109070,815.844910 181.408340,842.208252 &#xA;&#x9;C183.193466,841.539673 184.287918,840.455261 185.175659,839.222046 &#xA;&#x9;C190.294220,832.111328 195.428696,825.010559 200.437134,817.822388 &#xA;&#x9;C212.233704,800.891724 223.962265,783.913696 236.361649,766.679504 &#xA;&#x9;C240.713455,760.171265 245.065262,753.663025 250.031219,746.933105 &#xA;&#x9;C254.284103,740.591248 258.536957,734.249329 263.414856,727.635620 &#xA;&#x9;C267.588257,721.377258 271.761627,715.118896 276.560059,708.621216 &#xA;&#x9;C281.331635,701.397156 286.103241,694.173096 291.500549,686.678162 &#xA;&#x9;C296.724243,678.508057 301.947937,670.337891 307.804718,661.961304 &#xA;&#x9;C312.260803,654.999695 316.716888,648.038086 321.827515,640.923096 &#xA;&#x9;C326.209869,634.267090 330.592224,627.611084 335.588837,620.675781 &#xA;&#x9;C339.723663,614.446960 343.858521,608.218079 348.603058,601.693115 &#xA;&#x9;C353.069946,594.796631 357.536835,587.900146 362.609131,580.698425 &#xA;&#x9;C368.308197,572.414978 374.096558,564.191040 379.669708,555.823730 &#xA;&#x9;C382.560547,551.483459 381.155670,549.044678 375.951263,549.018494 &#xA;&#x9;C365.351501,548.965210 354.750946,549.047180 344.151672,548.957275 &#xA;&#x9;C342.431244,548.942749 340.715912,548.331909 339.089844,547.307922 &#xA;&#x9;C359.005066,515.152039 380.244843,483.968292 405.854950,455.971008 &#xA;&#x9;C435.988403,423.028717 470.470032,396.029449 512.364685,379.663940 &#xA;&#x9;C555.268250,362.904297 598.335266,362.986969 640.811890,381.269440 &#xA;&#x9;C653.668579,386.803131 665.803040,394.014679 678.263000,400.454956 &#xA;&#x9;C686.764893,393.876312 695.536743,387.022491 704.377441,380.258667 &#xA;&#x9;C764.874023,333.974182 825.413147,287.745148 885.870667,241.409760 &#xA;&#x9;C900.103210,230.501740 914.076660,219.255585 928.693298,207.985794 &#xA;&#x9;C928.302917,207.756454 927.912537,207.527115 926.887451,207.592880 &#xA;&#x9;C925.903564,208.214432 924.912231,208.824570 923.936829,209.459229 &#xA;&#x9;C875.289673,241.111786 826.624268,272.736572 778.045227,304.493408 &#xA;&#x9;C775.060608,306.444519 772.783386,306.734985 769.491882,305.274902 &#xA;&#x9;C762.065857,301.980743 754.491943,298.960999 746.812927,296.307861 &#xA;&#x9;C726.096130,289.150024 706.639893,278.292725 683.630432,278.101288 &#xA;&#x9;C669.117371,277.980530 655.052979,277.410126 640.865234,281.972961 &#xA;&#x9;C615.621033,290.091553 589.823975,296.107147 565.996521,308.661255 &#xA;&#x9;C513.113403,336.524109 459.702545,363.385590 406.489838,390.622101 &#xA;&#x9;C383.022949,402.633423 359.518280,414.570984 336.009125,426.499390 &#xA;&#x9;C335.214661,426.902527 334.185577,426.843292 332.539490,427.123016 &#xA;&#x9;C333.396393,425.874817 333.746857,425.168030 334.270416,424.629578 &#xA;&#x9;C380.722992,376.856598 432.225494,335.628448 491.372131,304.516266 &#xA;&#x9;C544.445068,276.598999 600.106079,257.863190 661.681702,258.907349 &#xA;&#x9;C664.227295,259.265442 666.772888,259.623535 669.318542,259.981628 &#xA;&#x9;C669.381287,259.488403 669.444031,258.995178 669.506775,258.501953 &#xA;&#x9;C666.670105,258.075806 663.833374,257.649658 660.225342,256.983093 &#xA;&#x9;C655.641418,256.163300 651.047791,255.393768 646.475098,254.515564 &#xA;&#x9;C616.299255,248.720261 586.054016,245.143677 555.224976,248.939056 &#xA;&#x9;C522.410339,252.978882 490.179474,258.723969 460.277466,273.855621 &#xA;&#x9;C442.503967,282.849731 423.861877,290.283478 408.334229,303.188324 &#xA;&#x9;C366.970764,337.565063 332.833771,377.573639 310.877319,427.279175 &#xA;&#x9;C302.274933,446.753510 294.140137,466.278442 289.335114,487.120514 &#xA;&#x9;C285.790894,502.493744 284.797607,518.052917 284.499847,533.699951 &#xA;&#x9;C284.139465,552.638794 281.431915,571.604980 285.004547,590.515808 &#xA;&#x9;C287.257111,602.439331 289.431366,614.377747 291.272217,627.057312 &#xA;&#x9;C289.190460,631.374817 287.108704,635.692261 284.480194,640.411316 &#xA;&#x9;C281.019012,646.956970 277.557831,653.502625 273.537689,660.438904 &#xA;&#x9;C269.170990,668.981812 264.804260,677.524658 260.005615,686.655334 &#xA;&#x9;C256.478180,693.802307 252.950729,700.949219 248.801941,708.446289 &#xA;&#x9;C245.023682,715.984863 241.245407,723.523438 236.857407,731.438110 &#xA;&#x9;C233.747559,737.647827 230.637711,743.857544 226.922897,750.471313 &#xA;M550.614075,733.606201 &#xA;&#x9;C559.480652,728.163391 568.347229,722.720581 577.902588,717.115906 &#xA;&#x9;C587.534058,711.142334 597.165466,705.168823 606.796936,699.195251 &#xA;&#x9;C605.009460,698.015625 603.748657,697.967102 602.492432,698.023071 &#xA;&#x9;C587.223145,698.703308 571.913818,700.413086 556.697205,699.803223 &#xA;&#x9;C541.693665,699.201843 530.356323,706.079102 518.211182,713.955261 &#xA;&#x9;C508.453918,719.257507 498.696625,724.559753 488.226227,729.959534 &#xA;&#x9;C479.139923,734.923218 470.053619,739.886902 460.244995,744.955688 &#xA;&#x9;C450.488525,750.283569 440.732086,755.611450 430.265259,761.007507 &#xA;&#x9;C420.496979,766.638245 410.728699,772.268982 400.245636,777.978882 &#xA;&#x9;C394.019501,781.455505 387.793396,784.932068 381.567261,788.408691 &#xA;&#x9;C381.578705,789.196777 381.590149,789.984802 381.601593,790.772888 &#xA;&#x9;C395.131531,796.897461 408.632965,803.087158 422.238892,809.038025 &#xA;&#x9;C423.487640,809.584167 425.684784,809.059143 426.966339,808.264893 &#xA;&#x9;C441.437744,799.296509 455.816223,790.178223 470.893311,780.982239 &#xA;&#x9;C479.680847,775.465881 488.468384,769.949463 497.948120,764.260315 &#xA;&#x9;C506.622742,759.157715 515.297363,754.055115 524.662292,748.833130 &#xA;&#x9;C533.096252,743.812805 541.530151,738.792480 550.614075,733.606201 &#xA;M311.267426,737.233948 &#xA;&#x9;C308.022430,741.092102 304.777435,744.950256 300.989624,749.154175 &#xA;&#x9;C295.276917,755.992981 289.564209,762.831848 283.243408,769.994141 &#xA;&#x9;C278.164185,775.996948 273.084961,781.999817 267.414032,788.311707 &#xA;&#x9;C262.877869,793.756226 258.341675,799.200745 253.234375,805.009583 &#xA;&#x9;C235.547684,824.830505 217.861008,844.651489 200.174316,864.472473 &#xA;&#x9;C201.992081,864.758301 203.412827,864.418213 204.614899,863.708008 &#xA;&#x9;C226.693390,850.663086 248.791382,837.650024 270.780670,824.455872 &#xA;&#x9;C279.375427,819.298828 287.713531,813.714050 296.913055,808.275757 &#xA;&#x9;C306.297485,802.570007 315.681885,796.864258 325.778259,791.063965 &#xA;&#x9;C335.180084,785.328308 344.581909,779.592712 354.683899,773.904480 &#xA;&#x9;C367.121063,766.593750 379.558228,759.283081 392.684082,751.843262 &#xA;&#x9;C399.931885,747.643738 407.179688,743.444214 415.100525,739.159119 &#xA;&#x9;C419.897614,736.497314 424.694672,733.835449 430.186432,731.173523 &#xA;&#x9;C437.519592,727.240662 444.852722,723.307739 452.888306,719.210388 &#xA;&#x9;C465.581879,712.091797 478.275421,704.973145 491.613129,697.667114 &#xA;&#x9;C496.010834,694.684814 500.408539,691.702576 505.376617,688.333557 &#xA;&#x9;C501.383972,686.204895 498.219849,684.517944 494.695496,682.273926 &#xA;&#x9;C489.172119,678.158203 483.648743,674.042480 477.801666,669.340881 &#xA;&#x9;C473.209534,664.890137 468.617371,660.439392 463.740662,655.381958 &#xA;&#x9;C458.124054,648.263733 452.507446,641.145447 446.673798,633.377563 &#xA;&#x9;C441.218018,621.813049 435.762238,610.248596 430.264130,598.594360 &#xA;&#x9;C424.015472,605.886719 417.412598,613.469177 410.957397,621.175232 &#xA;&#x9;C407.480408,625.326050 404.256378,629.688660 400.334595,634.280090 &#xA;&#x9;C394.533142,641.111816 388.731689,647.943542 382.364166,655.161499 &#xA;&#x9;C378.204315,660.085449 374.044495,665.009399 369.314972,670.277527 &#xA;&#x9;C365.806213,674.680054 362.297424,679.082642 358.141998,683.759949 &#xA;&#x9;C354.468597,687.845947 350.795197,691.931946 346.679199,696.522949 &#xA;&#x9;C341.378265,702.817200 336.077362,709.111511 330.131592,715.686829 &#xA;&#x9;C326.328705,720.085327 322.525818,724.483765 318.153320,729.182495 &#xA;&#x9;C316.055969,731.769775 313.958618,734.357117 311.267426,737.233948 &#xA;M856.727783,274.257416 &#xA;&#x9;C797.245422,315.073120 740.326538,359.319183 683.238098,404.279022 &#xA;&#x9;C688.727600,409.030060 694.349304,413.895477 700.015625,418.799561 &#xA;&#x9;C700.856445,418.173889 701.383972,417.807739 701.882935,417.406158 &#xA;&#x9;C783.819153,351.470337 865.812317,285.605103 947.629272,219.521683 &#xA;&#x9;C961.276917,208.498444 975.805664,198.416290 987.390442,184.989975 &#xA;&#x9;C988.347717,183.880554 989.253906,182.727112 990.183899,181.594147 &#xA;&#x9;C989.825623,181.253998 989.467346,180.913834 989.109070,180.573685 &#xA;&#x9;C945.187012,211.678589 901.264954,242.783508 856.727783,274.257416 &#xA;z"/>
  <path fill="#FEFEFE" stroke="none" d="&#xA;M928.169312,208.164978 &#xA;&#x9;C914.076660,219.255585 900.103210,230.501740 885.870667,241.409760 &#xA;&#x9;C825.413147,287.745148 764.874023,333.974182 704.377441,380.258667 &#xA;&#x9;C695.536743,387.022491 686.764893,393.876312 678.263000,400.454956 &#xA;&#x9;C665.803040,394.014679 653.668579,386.803131 640.811890,381.269440 &#xA;&#x9;C598.335266,362.986969 555.268250,362.904297 512.364685,379.663940 &#xA;&#x9;C470.470032,396.029449 435.988403,423.028717 405.854950,455.971008 &#xA;&#x9;C380.244843,483.968292 359.005066,515.152039 338.762329,547.846313 &#xA;&#x9;C332.863678,557.893982 327.292511,567.403259 321.432983,577.085449 &#xA;&#x9;C317.732849,583.441162 314.321136,589.623962 310.615417,595.997070 &#xA;&#x9;C306.506134,603.035828 302.690918,609.884338 298.570251,616.908081 &#xA;&#x9;C297.207031,618.966553 296.279663,620.940918 295.049072,622.703613 &#xA;&#x9;C294.112640,624.044983 292.790985,625.117371 291.640747,626.309448 &#xA;&#x9;C289.431366,614.377747 287.257111,602.439331 285.004547,590.515808 &#xA;&#x9;C281.431915,571.604980 284.139465,552.638794 284.499847,533.699951 &#xA;&#x9;C284.797607,518.052917 285.790894,502.493744 289.335114,487.120514 &#xA;&#x9;C294.140137,466.278442 302.274933,446.753510 310.877319,427.279175 &#xA;&#x9;C332.833771,377.573639 366.970764,337.565063 408.334229,303.188324 &#xA;&#x9;C423.861877,290.283478 442.503967,282.849731 460.277466,273.855621 &#xA;&#x9;C490.179474,258.723969 522.410339,252.978882 555.224976,248.939056 &#xA;&#x9;C586.054016,245.143677 616.299255,248.720261 646.475098,254.515564 &#xA;&#x9;C651.047791,255.393768 655.641418,256.163300 660.608276,257.345062 &#xA;&#x9;C660.987122,258.029388 660.988281,258.351715 660.994690,258.674072 &#xA;&#x9;C600.106079,257.863190 544.445068,276.598999 491.372131,304.516266 &#xA;&#x9;C432.225494,335.628448 380.722992,376.856598 334.270416,424.629578 &#xA;&#x9;C333.746857,425.168030 333.396393,425.874817 332.539490,427.123016 &#xA;&#x9;C334.185577,426.843292 335.214661,426.902527 336.009125,426.499390 &#xA;&#x9;C359.518280,414.570984 383.022949,402.633423 406.489838,390.622101 &#xA;&#x9;C459.702545,363.385590 513.113403,336.524109 565.996521,308.661255 &#xA;&#x9;C589.823975,296.107147 615.621033,290.091553 640.865234,281.972961 &#xA;&#x9;C655.052979,277.410126 669.117371,277.980530 683.630432,278.101288 &#xA;&#x9;C706.639893,278.292725 726.096130,289.150024 746.812927,296.307861 &#xA;&#x9;C754.491943,298.960999 762.065857,301.980743 769.491882,305.274902 &#xA;&#x9;C772.783386,306.734985 775.060608,306.444519 778.045227,304.493408 &#xA;&#x9;C826.624268,272.736572 875.289673,241.111786 923.936829,209.459229 &#xA;&#x9;C924.912231,208.824570 925.903564,208.214432 927.349854,207.674591 &#xA;&#x9;C927.931274,207.892532 928.050293,208.028763 928.169312,208.164978 &#xA;z"/>
  <path fill="#1B82E7" stroke="none" d="&#xA;M695.986938,809.963867 &#xA;&#x9;C675.914001,821.001770 654.462036,828.335266 632.160828,833.152893 &#xA;&#x9;C619.558289,835.875366 606.814880,837.975586 594.090454,840.088379 &#xA;&#x9;C589.393005,840.868286 584.572021,841.117004 579.800659,841.194092 &#xA;&#x9;C569.758423,841.356323 559.710144,841.131348 549.667175,841.269287 &#xA;&#x9;C527.822327,841.569214 506.534088,837.753479 485.346252,832.970947 &#xA;&#x9;C468.682556,829.209534 452.680206,823.634521 437.456757,815.903992 &#xA;&#x9;C435.720367,815.022217 434.504028,813.116333 433.046570,811.685364 &#xA;&#x9;C434.441528,810.441162 435.836456,809.196960 437.674408,808.283203 &#xA;&#x9;C439.913574,809.075867 441.708649,809.935730 443.506104,809.940735 &#xA;&#x9;C473.291626,810.024048 503.077606,809.955322 532.862793,810.086060 &#xA;&#x9;C535.215332,810.096375 537.562500,811.325684 540.170410,812.061279 &#xA;&#x9;C541.378601,811.796082 543.186096,811.399353 545.349915,810.892761 &#xA;&#x9;C549.762024,809.329773 553.817749,807.876587 558.096985,806.808838 &#xA;&#x9;C560.249268,807.463684 562.177917,807.966125 564.107056,807.968262 &#xA;&#x9;C605.231934,808.013428 646.357056,807.963745 687.481628,808.086792 &#xA;&#x9;C690.318542,808.095276 693.151917,809.310059 695.986938,809.963867 &#xA;M521.841553,821.061279 &#xA;&#x9;C524.484436,819.812378 527.127319,818.563538 529.770203,817.314697 &#xA;&#x9;C529.492493,816.758423 529.214783,816.202087 528.937073,815.645813 &#xA;&#x9;C525.666931,817.260071 522.396790,818.874329 519.126648,820.488586 &#xA;&#x9;C519.256287,820.844299 519.385925,821.200073 519.515625,821.555786 &#xA;&#x9;C520.085205,821.491394 520.654846,821.426941 521.841553,821.061279 &#xA;M532.324524,815.352356 &#xA;&#x9;C532.574829,815.472351 532.825195,815.592407 533.075500,815.712402 &#xA;&#x9;C533.147949,815.472351 533.220398,815.232239 533.292908,814.992188 &#xA;&#x9;C532.948853,814.966187 532.604736,814.940247 532.324524,815.352356 &#xA;M535.811096,814.743652 &#xA;&#x9;C535.972046,814.626221 536.132996,814.508789 536.294006,814.391296 &#xA;&#x9;C536.069824,814.415527 535.845642,814.439697 535.811096,814.743652 &#xA;z"/>
  <path fill="#FBFBFB" stroke="none" d="&#xA;M857.035339,274.072937 &#xA;&#x9;C901.264954,242.783508 945.187012,211.678589 989.109070,180.573685 &#xA;&#x9;C989.467346,180.913834 989.825623,181.253998 990.183899,181.594147 &#xA;&#x9;C989.253906,182.727112 988.347717,183.880554 987.390442,184.989975 &#xA;&#x9;C975.805664,198.416290 961.276917,208.498444 947.629272,219.521683 &#xA;&#x9;C865.812317,285.605103 783.819153,351.470337 701.882935,417.406158 &#xA;&#x9;C701.383972,417.807739 700.856445,418.173889 700.015625,418.799561 &#xA;&#x9;C694.349304,413.895477 688.727600,409.030060 683.238098,404.279022 &#xA;&#x9;C740.326538,359.319183 797.245422,315.073120 857.035339,274.072937 &#xA;z"/>
  <path fill="#104C86" stroke="none" d="&#xA;M809.984741,697.883911 &#xA;&#x9;C799.868286,703.933777 789.757507,709.993164 779.624695,716.015442 &#xA;&#x9;C778.800171,716.505432 777.824646,716.741516 776.156250,716.918213 &#xA;&#x9;C773.270630,716.493896 771.148254,716.033081 769.025452,716.031372 &#xA;&#x9;C718.872131,715.990784 668.718689,716.018555 618.565552,715.924927 &#xA;&#x9;C616.703613,715.921448 614.843750,714.822021 612.982910,714.233337 &#xA;&#x9;C624.066956,707.825195 635.151062,701.417053 646.871460,695.260803 &#xA;&#x9;C649.474915,695.675964 651.442017,695.980713 653.409180,695.981750 &#xA;&#x9;C702.675964,696.008118 751.942688,695.985962 801.209412,696.043518 &#xA;&#x9;C804.160706,696.046997 807.111267,696.642334 810.062195,696.962341 &#xA;&#x9;C810.062195,696.962341 810.010620,697.005859 810.008240,697.210449 &#xA;&#x9;C810.005859,697.414978 809.984741,697.883972 809.984741,697.883911 &#xA;z"/>
  <path fill="#104C86" stroke="none" d="&#xA;M330.776428,715.405823 &#xA;&#x9;C336.077362,709.111511 341.378265,702.817200 347.317444,696.266785 &#xA;&#x9;C350.075592,695.675720 352.195160,695.051514 354.315521,695.048767 &#xA;&#x9;C397.779602,694.991821 441.243927,694.966248 484.707489,695.126587 &#xA;&#x9;C486.797974,695.134277 488.881989,696.904907 490.968994,697.854553 &#xA;&#x9;C478.275421,704.973145 465.581879,712.091797 452.421143,718.863403 &#xA;&#x9;C450.012573,718.010132 448.072205,717.066956 446.129547,717.062256 &#xA;&#x9;C409.631592,716.974304 373.133270,717.022095 336.635345,716.929749 &#xA;&#x9;C334.681091,716.924805 332.729370,715.936401 330.776428,715.405823 &#xA;z"/>
  <path fill="#1567B6" stroke="none" d="&#xA;M516.761597,765.393066 &#xA;&#x9;C528.583191,759.269287 540.404785,753.145508 552.873047,747.271240 &#xA;&#x9;C555.490356,747.681274 557.460999,747.980835 559.431702,747.982056 &#xA;&#x9;C602.764160,748.008850 646.096680,747.963257 689.428711,748.100464 &#xA;&#x9;C692.010437,748.108643 694.587646,749.530151 697.166992,750.294006 &#xA;&#x9;C680.758545,756.572449 664.350159,762.850830 647.200806,768.950012 &#xA;&#x9;C643.757935,768.179688 641.057495,767.081604 638.353882,767.073792 &#xA;&#x9;C599.770325,766.961975 561.186279,767.020874 522.602600,766.929382 &#xA;&#x9;C520.654358,766.924744 518.708496,765.927917 516.761597,765.393066 &#xA;z"/>
  <path fill="#125597" stroke="none" d="&#xA;M612.628845,714.219971 &#xA;&#x9;C614.843750,714.822021 616.703613,715.921448 618.565552,715.924927 &#xA;&#x9;C668.718689,716.018555 718.872131,715.990784 769.025452,716.031372 &#xA;&#x9;C771.148254,716.033081 773.270630,716.493896 775.793335,716.912842 &#xA;&#x9;C769.871826,720.647217 763.652588,724.410339 757.192688,727.700867 &#xA;&#x9;C752.935974,729.869202 748.332764,731.357300 743.220947,732.847412 &#xA;&#x9;C740.597778,732.363220 738.638611,732.024231 736.679138,732.023010 &#xA;&#x9;C687.972229,731.993652 639.265198,732.027466 590.558533,731.910889 &#xA;&#x9;C588.355774,731.905640 586.156128,730.598694 583.955017,729.898010 &#xA;&#x9;C593.394958,724.667542 602.834839,719.437012 612.628845,714.219971 &#xA;z"/>
  <path fill="#1977D3" stroke="none" d="&#xA;M741.131653,781.212891 &#xA;&#x9;C731.714172,787.754211 722.296692,794.295471 712.166870,800.805176 &#xA;&#x9;C709.337402,800.515686 707.220581,800.035400 705.103271,800.032959 &#xA;&#x9;C665.841858,799.987976 626.580322,800.028381 587.319153,799.921143 &#xA;&#x9;C585.230347,799.915405 583.144714,798.764648 581.057617,798.146851 &#xA;&#x9;C600.011108,791.853577 618.962952,785.555176 637.921570,779.277283 &#xA;&#x9;C639.332703,778.809998 640.792297,778.489075 642.862366,778.364014 &#xA;&#x9;C645.723572,779.086060 647.950623,779.935974 650.180237,779.943054 &#xA;&#x9;C678.636597,780.033142 707.093384,779.979736 735.549866,780.054321 &#xA;&#x9;C737.411438,780.059204 739.271118,780.809387 741.131653,781.212891 &#xA;z"/>
  <path fill="#176EC4" stroke="none" d="&#xA;M516.408325,765.506165 &#xA;&#x9;C518.708496,765.927917 520.654358,766.924744 522.602600,766.929382 &#xA;&#x9;C561.186279,767.020874 599.770325,766.961975 638.353882,767.073792 &#xA;&#x9;C641.057495,767.081604 643.757935,768.179688 646.828857,768.929443 &#xA;&#x9;C635.284424,773.780640 623.372192,778.476318 611.456848,783.163940 &#xA;&#x9;C607.959229,784.539917 604.452759,785.893311 600.330627,786.957520 &#xA;&#x9;C596.997498,786.104553 594.285645,785.078064 591.570496,785.069336 &#xA;&#x9;C557.516113,784.959839 523.461121,785.027039 489.406799,784.914734 &#xA;&#x9;C487.607788,784.908813 485.812683,783.702271 484.015747,783.054565 &#xA;&#x9;C494.695496,777.242798 505.375275,771.431030 516.408325,765.506165 &#xA;z"/>
  <path fill="#1567B6" stroke="none" d="&#xA;M283.851501,769.670776 &#xA;&#x9;C289.564209,762.831848 295.276917,755.992981 301.713928,749.072266 &#xA;&#x9;C304.882721,749.326965 307.326416,749.949219 309.771820,749.955994 &#xA;&#x9;C335.384430,750.027283 360.997498,749.960388 386.609680,750.084839 &#xA;&#x9;C388.407959,750.093567 390.200317,751.314941 391.995422,751.972412 &#xA;&#x9;C379.558228,759.283081 367.121063,766.593750 354.274963,773.498840 &#xA;&#x9;C352.020142,772.393799 350.178741,771.100464 348.327728,771.086548 &#xA;&#x9;C328.675812,770.939209 309.022247,771.030273 289.369659,770.937500 &#xA;&#x9;C287.528320,770.928833 285.690796,770.112244 283.851501,769.670776 &#xA;z"/>
  <path fill="#1977D3" stroke="none" d="&#xA;M483.667053,783.116699 &#xA;&#x9;C485.812683,783.702271 487.607788,784.908813 489.406799,784.914734 &#xA;&#x9;C523.461121,785.027039 557.516113,784.959839 591.570496,785.069336 &#xA;&#x9;C594.285645,785.078064 596.997498,786.104553 599.950684,786.990784 &#xA;&#x9;C588.275757,792.020081 576.361084,796.716675 563.958984,801.656311 &#xA;&#x9;C563.471558,801.899353 562.989624,801.800781 562.879150,801.421082 &#xA;&#x9;C560.902527,800.694275 559.036926,800.048340 557.170044,800.044556 &#xA;&#x9;C526.224854,799.981934 495.279419,800.033325 464.334351,799.946106 &#xA;&#x9;C461.398224,799.937805 458.464233,799.174072 455.529266,798.761108 &#xA;&#x9;C464.792328,793.566956 474.055359,788.372864 483.667053,783.116699 &#xA;z"/>
  <path fill="#0C3965" stroke="none" d="&#xA;M828.983704,665.994873 &#xA;&#x9;C826.931885,670.232544 824.880066,674.470276 822.147217,678.744019 &#xA;&#x9;C819.347839,678.519287 817.229736,678.033386 815.111084,678.030945 &#xA;&#x9;C775.476318,677.985596 735.841553,677.991760 696.206726,678.014404 &#xA;&#x9;C694.223877,678.015564 692.151855,678.693604 690.277161,678.304932 &#xA;&#x9;C686.527466,677.527466 682.115967,679.900085 679.012451,676.037476 &#xA;&#x9;C685.458008,672.074158 691.903564,668.110779 699.032593,664.233276 &#xA;&#x9;C702.181152,665.381042 704.646240,666.443054 707.552979,667.695251 &#xA;&#x9;C709.035889,666.721375 711.046448,665.400940 713.440857,664.232300 &#xA;&#x9;C715.789612,664.589417 717.754272,664.971619 719.719360,664.973755 &#xA;&#x9;C753.869995,665.010193 788.020752,664.981018 822.171265,665.042664 &#xA;&#x9;C824.442627,665.046753 826.712891,665.663208 828.983704,665.994873 &#xA;z"/>
  <path fill="#0D3D6C" stroke="none" d="&#xA;M478.125336,669.926880 &#xA;&#x9;C483.648743,674.042480 489.172119,678.158203 494.782013,682.965576 &#xA;&#x9;C493.396973,684.104858 491.926086,684.940979 490.453796,684.943420 &#xA;&#x9;C448.196716,685.013550 405.939484,685.016907 363.682434,684.936035 &#xA;&#x9;C362.050262,684.932922 360.419861,683.990112 358.788635,683.485168 &#xA;&#x9;C362.297424,679.082642 365.806213,674.680054 370.025269,670.177002 &#xA;&#x9;C373.015381,670.384338 375.294647,670.955811 377.575073,670.960205 &#xA;&#x9;C408.483917,671.019470 439.392975,671.025757 470.301758,670.953552 &#xA;&#x9;C472.910400,670.947449 475.517517,670.284607 478.125336,669.926880 &#xA;z"/>
  <path fill="#135DA5" stroke="none" d="&#xA;M583.604370,729.965454 &#xA;&#x9;C586.156128,730.598694 588.355774,731.905640 590.558533,731.910889 &#xA;&#x9;C639.265198,732.027466 687.972229,731.993652 736.679138,732.023010 &#xA;&#x9;C738.638611,732.024231 740.597778,732.363220 742.843323,732.873291 &#xA;&#x9;C733.333496,736.819153 723.537537,740.436462 713.269714,743.596802 &#xA;&#x9;C710.951111,742.759949 709.104797,742.050659 707.257507,742.048157 &#xA;&#x9;C661.653076,741.986633 616.048462,742.022034 570.444214,741.918884 &#xA;&#x9;C568.636658,741.914795 566.831909,740.719543 565.025818,740.079346 &#xA;&#x9;C571.101807,736.730530 577.177795,733.381714 583.604370,729.965454 &#xA;z"/>
  <path fill="#125597" stroke="none" d="&#xA;M330.454041,715.546326 &#xA;&#x9;C332.729370,715.936401 334.681091,716.924805 336.635345,716.929749 &#xA;&#x9;C373.133270,717.022095 409.631592,716.974304 446.129547,717.062256 &#xA;&#x9;C448.072205,717.066956 450.012573,718.010132 452.069946,718.945679 &#xA;&#x9;C444.852722,723.307739 437.519592,727.240662 429.405945,731.008911 &#xA;&#x9;C426.514038,730.562988 424.403015,730.040100 422.291138,730.036560 &#xA;&#x9;C390.707794,729.984070 359.124237,730.029541 327.540985,729.951294 &#xA;&#x9;C324.600739,729.944031 321.662231,729.254822 318.722900,728.882202 &#xA;&#x9;C322.525818,724.483765 326.328705,720.085327 330.454041,715.546326 &#xA;z"/>
  <path fill="#1B82E7" stroke="none" d="&#xA;M296.168518,808.324097 &#xA;&#x9;C287.713531,813.714050 279.375427,819.298828 270.780670,824.455872 &#xA;&#x9;C248.791382,837.650024 226.693390,850.663086 204.614899,863.708008 &#xA;&#x9;C203.412827,864.418213 201.992081,864.758301 200.174316,864.472473 &#xA;&#x9;C217.861008,844.651489 235.547684,824.830505 253.753418,805.167969 &#xA;&#x9;C256.808136,805.885010 259.335388,806.876404 261.880951,806.925720 &#xA;&#x9;C271.642853,807.115295 281.411407,806.940796 291.175507,807.061829 &#xA;&#x9;C292.844788,807.082458 294.504425,807.883545 296.168518,808.324097 &#xA;z"/>
  <path fill="#0D3D6C" stroke="none" d="&#xA;M678.666138,676.089111 &#xA;&#x9;C682.115967,679.900085 686.527466,677.527466 690.277161,678.304932 &#xA;&#x9;C692.151855,678.693604 694.223877,678.015564 696.206726,678.014404 &#xA;&#x9;C735.841553,677.991760 775.476318,677.985596 815.111084,678.030945 &#xA;&#x9;C817.229736,678.033386 819.347839,678.519287 821.877197,678.960510 &#xA;&#x9;C820.422058,682.357239 818.555908,685.573547 816.106995,688.647827 &#xA;&#x9;C813.560120,688.336365 811.596008,688.020203 809.631775,688.019043 &#xA;&#x9;C762.896606,687.991394 716.161316,688.027222 669.426392,687.914368 &#xA;&#x9;C666.956848,687.908386 664.490234,686.695312 662.022217,686.044189 &#xA;&#x9;C667.454773,682.743042 672.887268,679.441956 678.666138,676.089111 &#xA;z"/>
  <path fill="#1977D3" stroke="none" d="&#xA;M470.219635,781.100159 &#xA;&#x9;C455.816223,790.178223 441.437744,799.296509 426.966339,808.264893 &#xA;&#x9;C425.684784,809.059143 423.487640,809.584167 422.238892,809.038025 &#xA;&#x9;C408.632965,803.087158 395.131531,796.897461 381.601593,790.772888 &#xA;&#x9;C381.590149,789.984802 381.578705,789.196777 381.567261,788.408691 &#xA;&#x9;C387.793396,784.932068 394.019501,781.455505 400.834045,778.257996 &#xA;&#x9;C403.636597,779.025513 405.848175,779.924377 408.065186,779.937866 &#xA;&#x9;C426.688751,780.051270 445.313477,779.967773 463.937378,780.050720 &#xA;&#x9;C466.032990,780.060120 468.125610,780.734253 470.219635,781.100159 &#xA;z"/>
  <path fill="#0E4479" stroke="none" d="&#xA;M358.465332,683.622559 &#xA;&#x9;C360.419861,683.990112 362.050262,684.932922 363.682434,684.936035 &#xA;&#x9;C405.939484,685.016907 448.196716,685.013550 490.453796,684.943420 &#xA;&#x9;C491.926086,684.940979 493.396973,684.104858 494.962097,683.244141 &#xA;&#x9;C498.219849,684.517944 501.383972,686.204895 505.376617,688.333557 &#xA;&#x9;C500.408539,691.702576 496.010834,694.684814 491.291077,697.760864 &#xA;&#x9;C488.881989,696.904907 486.797974,695.134277 484.707489,695.126587 &#xA;&#x9;C441.243927,694.966248 397.779602,694.991821 354.315521,695.048767 &#xA;&#x9;C352.195160,695.051514 350.075592,695.675720 347.538757,696.014282 &#xA;&#x9;C350.795197,691.931946 354.468597,687.845947 358.465332,683.622559 &#xA;z"/>
  <path fill="#092B4C" stroke="none" d="&#xA;M382.930206,654.775269 &#xA;&#x9;C388.731689,647.943542 394.533142,641.111816 401.103516,634.134888 &#xA;&#x9;C416.878601,634.002197 431.884735,634.014709 446.890869,634.027222 &#xA;&#x9;C452.507446,641.145447 458.124054,648.263733 463.465271,655.741577 &#xA;&#x9;C461.741119,656.398804 460.292999,656.952576 458.843597,656.955750 &#xA;&#x9;C434.775482,657.009399 410.707001,657.026917 386.639435,656.899597 &#xA;&#x9;C385.399323,656.893066 384.166473,655.514832 382.930206,654.775269 &#xA;z"/>
  <path fill="#092B4C" stroke="none" d="&#xA;M840.913330,638.015747 &#xA;&#x9;C839.025269,642.804688 837.137207,647.593628 834.621460,652.694702 &#xA;&#x9;C802.835083,653.004639 771.676270,653.033386 740.518066,652.921082 &#xA;&#x9;C738.688232,652.914429 736.862549,651.769409 735.034912,651.154114 &#xA;&#x9;C743.492249,646.200562 751.949585,641.247070 761.107300,636.327271 &#xA;&#x9;C763.767639,636.573975 765.727234,636.967529 767.687683,636.972046 &#xA;&#x9;C787.484131,637.017883 807.281189,636.937805 827.077148,637.046387 &#xA;&#x9;C831.690796,637.071716 836.301331,637.677246 840.913330,638.015747 &#xA;z"/>
  <path fill="#08243F" stroke="none" d="&#xA;M841.080933,637.685303 &#xA;&#x9;C836.301331,637.677246 831.690796,637.071716 827.077148,637.046387 &#xA;&#x9;C807.281189,636.937805 787.484131,637.017883 767.687683,636.972046 &#xA;&#x9;C765.727234,636.967529 763.767639,636.573975 761.428345,636.200073 &#xA;&#x9;C772.132019,629.048950 783.215027,622.058838 794.736572,615.421814 &#xA;&#x9;C796.833191,616.184082 798.489197,616.939453 800.149475,616.948730 &#xA;&#x9;C816.093140,617.037842 832.037415,617.001099 847.981567,617.000488 &#xA;&#x9;C845.737244,623.785217 843.492920,630.570007 841.080933,637.685303 &#xA;z"/>
  <path fill="#176EC4" stroke="none" d="&#xA;M741.444153,781.070312 &#xA;&#x9;C739.271118,780.809387 737.411438,780.059204 735.549866,780.054321 &#xA;&#x9;C707.093384,779.979736 678.636597,780.033142 650.180237,779.943054 &#xA;&#x9;C647.950623,779.935974 645.723572,779.086060 643.253296,778.329163 &#xA;&#x9;C657.431580,773.416016 671.851990,768.801636 686.973450,764.432068 &#xA;&#x9;C689.653381,764.784607 691.631226,764.956482 693.611389,764.990234 &#xA;&#x9;C715.500854,765.363403 737.390686,765.715149 759.280457,766.072754 &#xA;&#x9;C753.439209,771.024414 747.597900,775.976074 741.444153,781.070312 &#xA;z"/>
  <path fill="#0B345C" stroke="none" d="&#xA;M382.647186,654.968384 &#xA;&#x9;C384.166473,655.514832 385.399323,656.893066 386.639435,656.899597 &#xA;&#x9;C410.707001,657.026917 434.775482,657.009399 458.843597,656.955750 &#xA;&#x9;C460.292999,656.952576 461.741119,656.398804 463.607544,656.044922 &#xA;&#x9;C468.617371,660.439392 473.209534,664.890137 477.963501,669.633911 &#xA;&#x9;C475.517517,670.284607 472.910400,670.947449 470.301758,670.953552 &#xA;&#x9;C439.392975,671.025757 408.483917,671.019470 377.575073,670.960205 &#xA;&#x9;C375.294647,670.955811 373.015381,670.384338 370.310120,670.004883 &#xA;&#x9;C374.044495,665.009399 378.204315,660.085449 382.647186,654.968384 &#xA;z"/>
  <path fill="#0B345C" stroke="none" d="&#xA;M734.682617,651.171631 &#xA;&#x9;C736.862549,651.769409 738.688232,652.914429 740.518066,652.921082 &#xA;&#x9;C771.676270,653.033386 802.835083,653.004639 834.453552,653.014954 &#xA;&#x9;C833.122864,657.205627 831.332275,661.388367 829.262695,665.782959 &#xA;&#x9;C826.712891,665.663208 824.442627,665.046753 822.171265,665.042664 &#xA;&#x9;C788.020752,664.981018 753.869995,665.010193 719.719360,664.973755 &#xA;&#x9;C717.754272,664.971619 715.789612,664.589417 713.428589,664.213135 &#xA;&#x9;C713.032532,664.042175 713.005310,664.007629 713.157104,663.754272 &#xA;&#x9;C713.880249,662.995972 714.451721,662.491028 715.012146,661.993652 &#xA;&#x9;C715.001099,662.001282 714.983765,662.021667 715.283875,661.922363 &#xA;&#x9;C716.397095,661.210754 717.210205,660.598450 718.012085,659.992920 &#xA;&#x9;C718.000854,659.999756 717.982056,660.017944 718.330444,660.007935 &#xA;&#x9;C720.126709,658.993835 721.574524,657.989746 723.012573,656.992615 &#xA;&#x9;C723.002686,656.999573 722.986755,657.017822 722.986755,657.017822 &#xA;&#x9;C726.767944,655.074890 730.549133,653.132019 734.682617,651.171631 &#xA;z"/>
  <path fill="#0E4479" stroke="none" d="&#xA;M661.673828,686.102661 &#xA;&#x9;C664.490234,686.695312 666.956848,687.908386 669.426392,687.914368 &#xA;&#x9;C716.161316,688.027222 762.896606,687.991394 809.631775,688.019043 &#xA;&#x9;C811.596008,688.020203 813.560120,688.336365 815.816284,688.826172 &#xA;&#x9;C814.104736,691.526917 812.101074,693.907166 810.079834,696.624878 &#xA;&#x9;C807.111267,696.642334 804.160706,696.046997 801.209412,696.043518 &#xA;&#x9;C751.942688,695.985962 702.675964,696.008118 653.409180,695.981750 &#xA;&#x9;C651.442017,695.980713 649.474915,695.675964 647.223389,695.190857 &#xA;&#x9;C651.734436,691.966370 656.529968,689.063782 661.673828,686.102661 &#xA;z"/>
  <path fill="#176EC4" stroke="none" d="&#xA;M470.556458,781.041199 &#xA;&#x9;C468.125610,780.734253 466.032990,780.060120 463.937378,780.050720 &#xA;&#x9;C445.313477,779.967773 426.688751,780.051270 408.065186,779.937866 &#xA;&#x9;C405.848175,779.924377 403.636597,779.025513 401.191437,778.218445 &#xA;&#x9;C410.728699,772.268982 420.496979,766.638245 430.853882,761.287109 &#xA;&#x9;C433.654419,762.045349 435.863770,762.925110 438.078583,762.939087 &#xA;&#x9;C455.986847,763.052124 473.896362,762.961426 491.804718,763.065002 &#xA;&#x9;C493.624390,763.075562 495.438965,763.956177 497.255920,764.433105 &#xA;&#x9;C488.468384,769.949463 479.680847,775.465881 470.556458,781.041199 &#xA;z"/>
  <path fill="#030910" stroke="none" d="&#xA;M321.721375,576.912476 &#xA;&#x9;C327.292511,567.403259 332.863678,557.893982 338.716522,548.190735 &#xA;&#x9;C340.715912,548.331909 342.431244,548.942749 344.151672,548.957275 &#xA;&#x9;C354.750946,549.047180 365.351501,548.965210 375.951263,549.018494 &#xA;&#x9;C381.155670,549.044678 382.560547,551.483459 379.669708,555.823730 &#xA;&#x9;C374.096558,564.191040 368.308197,572.414978 362.259766,580.474304 &#xA;&#x9;C359.932831,579.167542 357.980682,577.205627 355.973480,577.147522 &#xA;&#x9;C344.563416,576.817566 333.140137,576.942383 321.721375,576.912476 &#xA;z"/>
  <path fill="#176EC4" stroke="none" d="&#xA;M283.547485,769.832458 &#xA;&#x9;C285.690796,770.112244 287.528320,770.928833 289.369659,770.937500 &#xA;&#x9;C309.022247,771.030273 328.675812,770.939209 348.327728,771.086548 &#xA;&#x9;C350.178741,771.100464 352.020142,772.393799 353.924866,773.475098 &#xA;&#x9;C344.581909,779.592712 335.180084,785.328308 325.323059,790.703491 &#xA;&#x9;C323.238373,789.894897 321.611328,789.068237 319.978912,789.057556 &#xA;&#x9;C304.745972,788.957947 289.511902,789.036255 274.278748,788.953918 &#xA;&#x9;C272.186096,788.942627 270.096680,788.334473 268.005737,788.002686 &#xA;&#x9;C273.084961,781.999817 278.164185,775.996948 283.547485,769.832458 &#xA;z"/>
  <path fill="#1460A9" stroke="none" d="&#xA;M392.339752,751.907837 &#xA;&#x9;C390.200317,751.314941 388.407959,750.093567 386.609680,750.084839 &#xA;&#x9;C360.997498,749.960388 335.384430,750.027283 309.771820,749.955994 &#xA;&#x9;C307.326416,749.949219 304.882721,749.326965 301.985321,748.899414 &#xA;&#x9;C304.777435,744.950256 308.022430,741.092102 311.990173,737.154663 &#xA;&#x9;C314.990570,737.383606 317.267639,737.955322 319.545868,737.960022 &#xA;&#x9;C348.763672,738.020569 377.981689,737.970764 407.199371,738.053894 &#xA;&#x9;C409.609863,738.060791 412.018158,738.829773 414.427490,739.244690 &#xA;&#x9;C407.179688,743.444214 399.931885,747.643738 392.339752,751.907837 &#xA;z"/>
  <path fill="#1567B6" stroke="none" d="&#xA;M497.602020,764.346680 &#xA;&#x9;C495.438965,763.956177 493.624390,763.075562 491.804718,763.065002 &#xA;&#x9;C473.896362,762.961426 455.986847,763.052124 438.078583,762.939087 &#xA;&#x9;C435.863770,762.925110 433.654419,762.045349 431.209076,761.253052 &#xA;&#x9;C440.732086,755.611450 450.488525,750.283569 460.691986,745.313232 &#xA;&#x9;C462.939880,746.113831 464.738678,746.931641 466.542023,746.941772 &#xA;&#x9;C483.791748,747.039185 501.042725,746.939575 518.291748,747.085754 &#xA;&#x9;C520.190308,747.101807 522.078796,748.301697 523.971985,748.952515 &#xA;&#x9;C515.297363,754.055115 506.622742,759.157715 497.602020,764.346680 &#xA;z"/>
  <path fill="#1A7CDC" stroke="none" d="&#xA;M580.672363,798.173889 &#xA;&#x9;C583.144714,798.764648 585.230347,799.915405 587.319153,799.921143 &#xA;&#x9;C626.580322,800.028381 665.841858,799.987976 705.103271,800.032959 &#xA;&#x9;C707.220581,800.035400 709.337402,800.515686 711.857178,800.946289 &#xA;&#x9;C707.072998,804.053711 701.886047,806.988403 696.343018,809.943481 &#xA;&#x9;C693.151917,809.310059 690.318542,808.095276 687.481628,808.086792 &#xA;&#x9;C646.357056,807.963745 605.231934,808.013428 564.107056,807.968262 &#xA;&#x9;C562.177917,807.966125 560.249268,807.463684 558.364258,806.621582 &#xA;&#x9;C560.315613,805.232422 562.223022,804.416016 564.130493,803.599670 &#xA;&#x9;C569.515991,801.800049 574.901550,800.000488 580.672363,798.173889 &#xA;z"/>
  <path fill="#1A7CDC" stroke="none" d="&#xA;M455.187805,798.805298 &#xA;&#x9;C458.464233,799.174072 461.398224,799.937805 464.334351,799.946106 &#xA;&#x9;C495.279419,800.033325 526.224854,799.981934 557.170044,800.044556 &#xA;&#x9;C559.036926,800.048340 560.902527,800.694275 562.521606,801.547668 &#xA;&#x9;C556.944702,804.109131 551.584534,806.091797 546.321960,808.306580 &#xA;&#x9;C545.624512,808.600159 545.424194,810.074951 544.993591,811.002686 &#xA;&#x9;C543.186096,811.399353 541.378601,811.796082 540.170410,812.061279 &#xA;&#x9;C537.562500,811.325684 535.215332,810.096375 532.862793,810.086060 &#xA;&#x9;C503.077606,809.955322 473.291626,810.024048 443.506104,809.940735 &#xA;&#x9;C441.708649,809.935730 439.913574,809.075867 438.029144,808.200317 &#xA;&#x9;C443.576019,804.807739 449.211151,801.828613 455.187805,798.805298 &#xA;z"/>
  <path fill="#104C86" stroke="none" d="&#xA;M518.919556,713.824768 &#xA;&#x9;C530.356323,706.079102 541.693665,699.201843 556.697205,699.803223 &#xA;&#x9;C571.913818,700.413086 587.223145,698.703308 602.492432,698.023071 &#xA;&#x9;C603.748657,697.967102 605.009460,698.015625 606.796936,699.195251 &#xA;&#x9;C597.165466,705.168823 587.534058,711.142334 577.265137,716.858643 &#xA;&#x9;C574.850037,716.400940 573.072754,716.031982 571.294495,716.026550 &#xA;&#x9;C556.081604,715.980164 540.867432,716.088745 525.656677,715.902588 &#xA;&#x9;C523.402893,715.875000 521.164856,714.549683 518.919556,713.824768 &#xA;z"/>
  <path fill="#125597" stroke="none" d="&#xA;M518.565369,713.890015 &#xA;&#x9;C521.164856,714.549683 523.402893,715.875000 525.656677,715.902588 &#xA;&#x9;C540.867432,716.088745 556.081604,715.980164 571.294495,716.026550 &#xA;&#x9;C573.072754,716.031982 574.850037,716.400940 576.920776,716.939575 &#xA;&#x9;C568.347229,722.720581 559.480652,728.163391 550.182251,733.315186 &#xA;&#x9;C548.057251,732.682800 546.365356,732.052307 544.670776,732.044800 &#xA;&#x9;C527.946777,731.970703 511.221710,732.066772 494.498962,731.906067 &#xA;&#x9;C492.639374,731.888184 490.792267,730.574646 488.939362,729.862000 &#xA;&#x9;C498.696625,724.559753 508.453918,719.257507 518.565369,713.890015 &#xA;z"/>
  <path fill="#135DA5" stroke="none" d="&#xA;M488.582794,729.910767 &#xA;&#x9;C490.792267,730.574646 492.639374,731.888184 494.498962,731.906067 &#xA;&#x9;C511.221710,732.066772 527.946777,731.970703 544.670776,732.044800 &#xA;&#x9;C546.365356,732.052307 548.057251,732.682800 549.857178,733.398193 &#xA;&#x9;C541.530151,738.792480 533.096252,743.812805 524.317139,748.892822 &#xA;&#x9;C522.078796,748.301697 520.190308,747.101807 518.291748,747.085754 &#xA;&#x9;C501.042725,746.939575 483.791748,747.039185 466.542023,746.941772 &#xA;&#x9;C464.738678,746.931641 462.939880,746.113831 461.053162,745.260620 &#xA;&#x9;C470.053619,739.886902 479.139923,734.923218 488.582794,729.910767 &#xA;z"/>
  <path fill="#1567B6" stroke="none" d="&#xA;M759.572266,765.936646 &#xA;&#x9;C737.390686,765.715149 715.500854,765.363403 693.611389,764.990234 &#xA;&#x9;C691.631226,764.956482 689.653381,764.784607 687.364563,764.408997 &#xA;&#x9;C701.828369,759.164124 716.597046,754.172241 731.379639,749.221924 &#xA;&#x9;C734.642578,748.129272 737.954712,747.183533 741.727417,746.533508 &#xA;&#x9;C743.718628,747.264526 745.221863,747.924866 746.735596,747.949768 &#xA;&#x9;C753.666260,748.063843 760.602112,747.895325 767.531250,748.049622 &#xA;&#x9;C770.442993,748.114441 773.342590,748.726562 776.247681,749.089844 &#xA;&#x9;C770.786499,754.660095 765.325317,760.230286 759.572266,765.936646 &#xA;z"/>
  <path fill="#1A7CDC" stroke="none" d="&#xA;M267.709900,788.157227 &#xA;&#x9;C270.096680,788.334473 272.186096,788.942627 274.278748,788.953918 &#xA;&#x9;C289.511902,789.036255 304.745972,788.957947 319.978912,789.057556 &#xA;&#x9;C321.611328,789.068237 323.238373,789.894897 324.967102,790.750793 &#xA;&#x9;C315.681885,796.864258 306.297485,802.570007 296.540771,808.299927 &#xA;&#x9;C294.504425,807.883545 292.844788,807.082458 291.175507,807.061829 &#xA;&#x9;C281.411407,806.940796 271.642853,807.115295 261.880951,806.925720 &#xA;&#x9;C259.335388,806.876404 256.808136,805.885010 254.038986,804.985840 &#xA;&#x9;C258.341675,799.200745 262.877869,793.756226 267.709900,788.157227 &#xA;z"/>
  <path fill="#1460A9" stroke="none" d="&#xA;M564.675293,740.128723 &#xA;&#x9;C566.831909,740.719543 568.636658,741.914795 570.444214,741.918884 &#xA;&#x9;C616.048462,742.022034 661.653076,741.986633 707.257507,742.048157 &#xA;&#x9;C709.104797,742.050659 710.951111,742.759949 712.895264,743.528687 &#xA;&#x9;C707.967651,746.015198 702.942627,748.112854 697.542358,750.252258 &#xA;&#x9;C694.587646,749.530151 692.010437,748.108643 689.428711,748.100464 &#xA;&#x9;C646.096680,747.963257 602.764160,748.008850 559.431702,747.982056 &#xA;&#x9;C557.460999,747.980835 555.490356,747.681274 553.235596,747.204285 &#xA;&#x9;C556.742615,744.651306 560.533691,742.414673 564.675293,740.128723 &#xA;z"/>
  <path fill="#041220" stroke="none" d="&#xA;M321.432983,577.085449 &#xA;&#x9;C333.140137,576.942383 344.563416,576.817566 355.973480,577.147522 &#xA;&#x9;C357.980682,577.205627 359.932831,579.167542 361.957031,580.626892 &#xA;&#x9;C357.536835,587.900146 353.069946,594.796631 348.290009,601.436462 &#xA;&#x9;C347.803436,597.698486 345.248657,598.006287 342.904633,598.004822 &#xA;&#x9;C334.091919,597.999207 325.276062,598.126465 316.469025,597.902649 &#xA;&#x9;C314.599304,597.855042 312.761810,596.538574 310.909454,595.806763 &#xA;&#x9;C314.321136,589.623962 317.732849,583.441162 321.432983,577.085449 &#xA;z"/>
  <path fill="#135DA5" stroke="none" d="&#xA;M414.764008,739.201904 &#xA;&#x9;C412.018158,738.829773 409.609863,738.060791 407.199371,738.053894 &#xA;&#x9;C377.981689,737.970764 348.763672,738.020569 319.545868,737.960022 &#xA;&#x9;C317.267639,737.955322 314.990570,737.383606 312.287109,737.009888 &#xA;&#x9;C313.958618,734.357117 316.055969,731.769775 318.438110,729.032349 &#xA;&#x9;C321.662231,729.254822 324.600739,729.944031 327.540985,729.951294 &#xA;&#x9;C359.124237,730.029541 390.707794,729.984070 422.291138,730.036560 &#xA;&#x9;C424.403015,730.040100 426.514038,730.562988 429.058594,731.008972 &#xA;&#x9;C424.694672,733.835449 419.897614,736.497314 414.764008,739.201904 &#xA;z"/>
  <path fill="#0C3965" stroke="none" d="&#xA;M260.437531,686.067627 &#xA;&#x9;C264.804260,677.524658 269.170990,668.981812 274.275879,660.229126 &#xA;&#x9;C283.635925,660.012085 292.261505,659.865540 300.876923,660.096863 &#xA;&#x9;C302.992157,660.153687 305.074249,661.444397 307.171600,662.167786 &#xA;&#x9;C301.947937,670.337891 296.724243,678.508057 290.816345,686.649231 &#xA;&#x9;C280.233948,686.436035 270.335754,686.251831 260.437531,686.067627 &#xA;z"/>
  <path fill="#176EC4" stroke="none" d="&#xA;M235.718323,766.954834 &#xA;&#x9;C223.962265,783.913696 212.233704,800.891724 200.437134,817.822388 &#xA;&#x9;C195.428696,825.010559 190.294220,832.111328 185.175659,839.222046 &#xA;&#x9;C184.287918,840.455261 183.193466,841.539673 181.408340,842.208252 &#xA;&#x9;C192.109070,815.844910 206.218704,791.238525 219.372147,765.890747 &#xA;&#x9;C225.242462,766.265198 230.480392,766.609985 235.718323,766.954834 &#xA;z"/>
  <path fill="#061B2F" stroke="none" d="&#xA;M310.615417,595.997009 &#xA;&#x9;C312.761810,596.538574 314.599304,597.855042 316.469025,597.902649 &#xA;&#x9;C325.276062,598.126465 334.091919,597.999207 342.904633,598.004822 &#xA;&#x9;C345.248657,598.006287 347.803436,597.698486 347.985168,601.584473 &#xA;&#x9;C343.858521,608.218079 339.723663,614.446960 335.192291,620.424622 &#xA;&#x9;C333.293152,619.782593 331.794617,619.072449 330.287323,619.053467 &#xA;&#x9;C321.652893,618.944763 313.012909,619.129761 304.383362,618.897095 &#xA;&#x9;C302.529358,618.847046 300.710663,617.488586 298.875671,616.732849 &#xA;&#x9;C302.690918,609.884338 306.506134,603.035828 310.615417,595.997009 &#xA;z"/>
  <path fill="#08243F" stroke="none" d="&#xA;M298.570251,616.908081 &#xA;&#x9;C300.710663,617.488586 302.529358,618.847046 304.383362,618.897095 &#xA;&#x9;C313.012909,619.129761 321.652893,618.944763 330.287323,619.053467 &#xA;&#x9;C331.794617,619.072449 333.293152,619.782593 334.885162,620.564270 &#xA;&#x9;C330.592224,627.611084 326.209869,634.267090 321.098053,640.825378 &#xA;&#x9;C318.579651,640.484253 316.791962,640.042114 315.001526,640.030579 &#xA;&#x9;C305.010406,639.966064 295.018555,640.005676 285.026978,640.009766 &#xA;&#x9;C287.108704,635.692261 289.190460,631.374817 291.456482,626.683350 &#xA;&#x9;C292.790985,625.117371 294.112640,624.044983 295.049072,622.703613 &#xA;&#x9;C296.279663,620.940918 297.207031,618.966553 298.570251,616.908081 &#xA;z"/>
  <path fill="#08243F" stroke="none" d="&#xA;M446.782349,633.702393 &#xA;&#x9;C431.884735,634.014709 416.878601,634.002197 401.395355,633.972656 &#xA;&#x9;C404.256378,629.688660 407.480408,625.326050 410.957397,621.175232 &#xA;&#x9;C417.412598,613.469177 424.015472,605.886719 430.264130,598.594360 &#xA;&#x9;C435.762238,610.248596 441.218018,621.813049 446.782349,633.702393 &#xA;z"/>
  <path fill="#061B2F" stroke="none" d="&#xA;M400.129028,606.034546 &#xA;&#x9;C393.966187,613.602905 387.803345,621.171326 381.237305,628.493774 &#xA;&#x9;C379.176208,627.832703 377.523590,627.084473 375.859467,627.057983 &#xA;&#x9;C366.879303,626.914917 357.896332,626.950867 348.914307,626.925049 &#xA;&#x9;C353.169067,619.814575 357.423798,612.704041 362.299622,605.293640 &#xA;&#x9;C368.067444,604.995056 373.218048,604.868958 378.359863,605.028198 &#xA;&#x9;C385.619659,605.253052 392.872986,605.688904 400.129028,606.034546 &#xA;z"/>
  <path fill="#061B2F" stroke="none" d="&#xA;M848.265381,616.767822 &#xA;&#x9;C832.037415,617.001099 816.093140,617.037842 800.149475,616.948730 &#xA;&#x9;C798.489197,616.939453 796.833191,616.184082 795.086304,615.375183 &#xA;&#x9;C802.099854,610.012878 809.202271,605.050293 816.945862,600.338379 &#xA;&#x9;C829.097473,600.728394 840.607971,600.867615 852.118469,601.006897 &#xA;&#x9;C850.928772,606.182983 849.739014,611.359070 848.265381,616.767822 &#xA;z"/>
  <path fill="#092B4C" stroke="none" d="&#xA;M284.753601,640.210571 &#xA;&#x9;C295.018555,640.005676 305.010406,639.966064 315.001526,640.030579 &#xA;&#x9;C316.791962,640.042114 318.579651,640.484253 320.770782,640.902100 &#xA;&#x9;C316.716888,648.038086 312.260803,654.999695 307.488159,662.064575 &#xA;&#x9;C305.074249,661.444397 302.992157,660.153687 300.876923,660.096863 &#xA;&#x9;C292.261505,659.865540 283.635925,660.012085 274.555389,660.033813 &#xA;&#x9;C277.557831,653.502625 281.019012,646.956970 284.753601,640.210571 &#xA;z"/>
  <path fill="#092B4C" stroke="none" d="&#xA;M348.621918,627.097595 &#xA;&#x9;C357.896332,626.950867 366.879303,626.914917 375.859467,627.057983 &#xA;&#x9;C377.523590,627.084473 379.176208,627.832703 380.937653,628.647278 &#xA;&#x9;C375.319244,636.002319 369.597321,642.957886 363.062042,649.968018 &#xA;&#x9;C353.107574,649.984741 343.966492,649.946960 334.825378,649.909180 &#xA;&#x9;C336.394348,646.886902 337.805359,643.768738 339.568573,640.864319 &#xA;&#x9;C342.365204,636.257812 345.397156,631.794189 348.621918,627.097595 &#xA;z"/>
  <path fill="#041220" stroke="none" d="&#xA;M400.469604,605.986816 &#xA;&#x9;C392.872986,605.688904 385.619659,605.253052 378.359863,605.028198 &#xA;&#x9;C373.218048,604.868958 368.067444,604.995056 362.449768,604.989685 &#xA;&#x9;C366.133118,598.449036 370.287445,591.912476 375.181702,585.182983 &#xA;&#x9;C385.612061,585.328674 395.302521,585.667297 404.992950,586.005981 &#xA;&#x9;C405.284485,588.753235 405.503174,591.510620 405.883484,594.245544 &#xA;&#x9;C406.572723,599.202148 405.384979,603.291687 400.469604,605.986816 &#xA;z"/>
  <path fill="#0E4479" stroke="none" d="&#xA;M260.221558,686.361450 &#xA;&#x9;C270.335754,686.251831 280.233948,686.436035 290.503479,686.784668 &#xA;&#x9;C286.103241,694.173096 281.331635,701.397156 276.152649,708.360107 &#xA;&#x9;C266.971283,708.098022 258.197266,708.097046 249.423279,708.096130 &#xA;&#x9;C252.950729,700.949219 256.478180,693.802307 260.221558,686.361450 &#xA;z"/>
  <path fill="#0B345C" stroke="none" d="&#xA;M334.544098,650.085022 &#xA;&#x9;C343.966492,649.946960 353.107574,649.984741 362.742096,650.042725 &#xA;&#x9;C357.022644,657.940796 350.809784,665.818665 344.203186,673.449524 &#xA;&#x9;C342.316010,672.800903 340.829590,672.086182 339.327911,672.052551 &#xA;&#x9;C333.195648,671.915283 327.058746,671.986145 320.923584,671.980408 &#xA;&#x9;C325.369995,664.740540 329.816406,657.500732 334.544098,650.085022 &#xA;z"/>
  <path fill="#030910" stroke="none" d="&#xA;M404.997253,585.560059 &#xA;&#x9;C395.302521,585.667297 385.612061,585.328674 375.450806,584.982300 &#xA;&#x9;C380.843994,575.962646 386.488678,566.793335 392.749115,558.065674 &#xA;&#x9;C394.067993,556.226990 397.612183,555.447388 400.197021,555.294373 &#xA;&#x9;C401.379944,555.224243 403.712769,557.779114 403.829865,559.276123 &#xA;&#x9;C404.501923,567.866760 404.665527,576.497131 404.997253,585.560059 &#xA;z"/>
  <path fill="#041220" stroke="none" d="&#xA;M852.427002,600.817749 &#xA;&#x9;C840.607971,600.867615 829.097473,600.728394 817.292419,600.292114 &#xA;&#x9;C825.847778,593.914429 834.684814,587.815125 843.552490,581.760620 &#xA;&#x9;C848.538513,578.356323 853.575073,575.026184 858.588867,571.662659 &#xA;&#x9;C859.174316,571.983826 859.759705,572.304993 860.345093,572.626160 &#xA;&#x9;C857.808594,581.960327 855.272095,591.294495 852.427002,600.817749 &#xA;z"/>
  <path fill="#125597" stroke="none" d="&#xA;M249.112610,708.271240 &#xA;&#x9;C258.197266,708.097046 266.971283,708.098022 275.840149,708.479736 &#xA;&#x9;C271.761627,715.118896 267.588257,721.377258 262.735382,727.612427 &#xA;&#x9;C257.485168,727.393677 252.868591,727.530945 248.356491,726.909485 &#xA;&#x9;C243.775452,726.278625 239.945099,726.634216 237.467163,731.062012 &#xA;&#x9;C241.245407,723.523438 245.023682,715.984863 249.112610,708.271240 &#xA;z"/>
  <path fill="#0D3D6C" stroke="none" d="&#xA;M320.756012,672.266724 &#xA;&#x9;C327.058746,671.986145 333.195648,671.915283 339.327911,672.052551 &#xA;&#x9;C340.829590,672.086182 342.316010,672.800903 343.903015,673.597351 &#xA;&#x9;C338.385864,680.975830 332.775116,687.959473 326.335999,694.988892 &#xA;&#x9;C319.272034,694.989014 313.036469,694.943237 306.800842,694.897522 &#xA;&#x9;C311.396729,687.449341 315.992584,680.001160 320.756012,672.266724 &#xA;z"/>
  <path fill="#135DA5" stroke="none" d="&#xA;M776.540527,748.949280 &#xA;&#x9;C773.342590,748.726562 770.442993,748.114441 767.531250,748.049622 &#xA;&#x9;C760.602112,747.895325 753.666260,748.063843 746.735596,747.949768 &#xA;&#x9;C745.221863,747.924866 743.718628,747.264526 742.115967,746.510376 &#xA;&#x9;C756.433960,739.789734 770.846558,733.455566 786.017456,727.065063 &#xA;&#x9;C789.438782,727.508362 792.908264,726.771912 793.065063,731.112549 &#xA;&#x9;C787.654480,737.011292 782.243958,742.909973 776.540527,748.949280 &#xA;z"/>
  <path fill="#1460A9" stroke="none" d="&#xA;M294.251953,735.359863 &#xA;&#x9;C285.970093,745.800476 277.720886,756.267212 269.392731,766.670776 &#xA;&#x9;C265.153778,771.966187 260.707062,777.095825 256.495331,782.412170 &#xA;&#x9;C255.194382,784.054382 254.358948,786.065369 253.310333,787.907471 &#xA;&#x9;C252.361023,787.116760 251.411713,786.326050 250.462402,785.535339 &#xA;&#x9;C259.975708,770.224854 269.489014,754.914429 279.510315,739.234619 &#xA;&#x9;C280.310944,738.168640 280.603607,737.472046 280.896301,736.775513 &#xA;&#x9;C281.293671,736.034119 281.691071,735.292786 282.711151,734.291382 &#xA;&#x9;C286.973206,734.474243 290.612610,734.917053 294.251953,735.359863 &#xA;z"/>
  <path fill="#135DA5" stroke="none" d="&#xA;M237.162292,731.250061 &#xA;&#x9;C239.945099,726.634216 243.775452,726.278625 248.356491,726.909485 &#xA;&#x9;C252.868591,727.530945 257.485168,727.393677 262.422882,727.748352 &#xA;&#x9;C258.536957,734.249329 254.284103,740.591248 249.301025,746.876709 &#xA;&#x9;C241.344620,746.529358 233.589920,742.813416 227.527863,750.067261 &#xA;&#x9;C230.637711,743.857544 233.747559,737.647827 237.162292,731.250061 &#xA;z"/>
  <path fill="#1567B6" stroke="none" d="&#xA;M227.225388,750.269287 &#xA;&#x9;C233.589920,742.813416 241.344620,746.529358 248.993958,746.987549 &#xA;&#x9;C245.065262,753.663025 240.713455,760.171265 236.039978,766.817139 &#xA;&#x9;C230.480392,766.609985 225.242462,766.265198 219.663910,765.765991 &#xA;&#x9;C221.856491,760.564819 224.389694,755.518066 227.225388,750.269287 &#xA;z"/>
  <path fill="#104C86" stroke="none" d="&#xA;M306.558807,695.127136 &#xA;&#x9;C313.036469,694.943237 319.272034,694.989014 326.023987,695.051331 &#xA;&#x9;C321.244446,701.994202 315.948608,708.920532 309.983337,715.749023 &#xA;&#x9;C304.329895,715.443787 299.345917,715.236389 294.361938,715.028992 &#xA;&#x9;C297.151154,710.251038 299.908630,705.454102 302.745605,700.704651 &#xA;&#x9;C303.843384,698.866760 305.121033,697.136230 306.558807,695.127136 &#xA;z"/>
  <path fill="#125597" stroke="none" d="&#xA;M294.210480,715.223877 &#xA;&#x9;C299.345917,715.236389 304.329895,715.443787 309.657837,715.825562 &#xA;&#x9;C304.952545,722.354858 299.903351,728.709656 294.553070,735.212158 &#xA;&#x9;C290.612610,734.917053 286.973206,734.474243 282.917542,734.050964 &#xA;&#x9;C284.965820,729.881897 287.430420,725.693237 290.432526,721.195557 &#xA;&#x9;C291.365540,720.063477 291.761078,719.240417 292.156555,718.417297 &#xA;&#x9;C292.156555,718.417297 292.203339,718.215698 292.575012,718.064575 &#xA;&#x9;C293.283203,717.242798 293.619781,716.572144 293.956360,715.901489 &#xA;&#x9;C293.956329,715.901489 294.059052,715.418701 294.210480,715.223877 &#xA;z"/>
  <path fill="#092B4C" stroke="none" d="&#xA;M719.008850,652.022095 &#xA;&#x9;C726.078674,647.488098 733.127197,642.920349 740.227295,638.434326 &#xA;&#x9;C743.769958,636.195984 747.407043,634.107056 751.001465,631.950562 &#xA;&#x9;C751.400818,632.520691 751.800171,633.090759 752.199585,633.660889 &#xA;&#x9;C742.728760,640.777771 733.257996,647.894592 723.238098,654.788452 &#xA;&#x9;C721.462280,653.717712 720.235535,652.869934 719.008850,652.022095 &#xA;z"/>
  <path fill="#0B345C" stroke="none" d="&#xA;M718.655823,652.068359 &#xA;&#x9;C720.235535,652.869934 721.462280,653.717712 722.890747,654.835388 &#xA;&#x9;C723.027466,655.529724 722.962402,655.954224 722.942078,656.698242 &#xA;&#x9;C722.986755,657.017822 723.002686,656.999573 722.641479,656.961426 &#xA;&#x9;C720.847534,657.954834 719.414795,658.986389 717.982056,660.017944 &#xA;&#x9;C717.982056,660.017944 718.000854,659.999756 717.649658,659.959839 &#xA;&#x9;C716.526855,660.620544 715.755310,661.321106 714.983765,662.021606 &#xA;&#x9;C714.983765,662.021667 715.001099,662.001282 714.676697,661.956848 &#xA;&#x9;C713.438721,662.346558 712.525146,662.780640 711.611572,663.214722 &#xA;&#x9;C712.076172,663.479065 712.540710,663.743347 713.005310,664.007629 &#xA;&#x9;C713.005310,664.007629 713.032532,664.042175 713.044800,664.061340 &#xA;&#x9;C711.046448,665.400940 709.035889,666.721375 707.552979,667.695251 &#xA;&#x9;C704.646240,666.443054 702.181152,665.381042 699.381531,664.175415 &#xA;&#x9;C705.465637,660.059326 711.884216,656.086975 718.655823,652.068359 &#xA;z"/>
  <path fill="#104C86" stroke="none" d="&#xA;M793.363647,730.954102 &#xA;&#x9;C792.908264,726.771912 789.438782,727.508362 786.371216,726.995239 &#xA;&#x9;C790.612732,724.172180 795.258789,721.362671 799.904785,718.553162 &#xA;&#x9;C800.439575,719.126953 800.974304,719.700745 801.509033,720.274597 &#xA;&#x9;C798.893433,723.781555 796.277832,727.288574 793.363647,730.954102 &#xA;z"/>
  <path fill="#061B2F" stroke="none" d="&#xA;M545.349915,810.892822 &#xA;&#x9;C545.424194,810.074951 545.624512,808.600159 546.321960,808.306580 &#xA;&#x9;C551.584534,806.091797 556.944702,804.109131 562.632019,801.927368 &#xA;&#x9;C562.989624,801.800781 563.471558,801.899353 563.716919,801.916199 &#xA;&#x9;C563.992126,802.210449 564.021912,802.487915 564.091064,803.182495 &#xA;&#x9;C562.223022,804.416016 560.315613,805.232422 558.140869,806.236084 &#xA;&#x9;C553.817749,807.876587 549.762024,809.329773 545.349915,810.892822 &#xA;z"/>
  <path fill="#FBFBFB" stroke="none" d="&#xA;M661.338196,258.790710 &#xA;&#x9;C660.988281,258.351715 660.987122,258.029388 660.993896,257.465271 &#xA;&#x9;C663.833374,257.649658 666.670105,258.075806 669.506775,258.501953 &#xA;&#x9;C669.444031,258.995178 669.381287,259.488403 669.318542,259.981628 &#xA;&#x9;C666.772888,259.623535 664.227295,259.265442 661.338196,258.790710 &#xA;z"/>
  <path fill="#104C86" stroke="none" d="&#xA;M291.861389,718.470581 &#xA;&#x9;C291.761078,719.240417 291.365540,720.063477 290.693848,720.961182 &#xA;&#x9;C290.800507,720.198486 291.183350,719.361206 291.861389,718.470581 &#xA;z"/>
  <path fill="#125597" stroke="none" d="&#xA;M280.623322,736.903198 &#xA;&#x9;C280.603607,737.472046 280.310944,738.168640 279.731140,738.951904 &#xA;&#x9;C279.746124,738.369446 280.048218,737.700134 280.623322,736.903198 &#xA;z"/>
  <path fill="#104C86" stroke="none" d="&#xA;M293.657104,715.994019 &#xA;&#x9;C293.619781,716.572144 293.283203,717.242798 292.666443,718.016174 &#xA;&#x9;C292.710114,717.441467 293.033966,716.763977 293.657104,715.994019 &#xA;z"/>
  <path fill="#0E4479" stroke="none" d="&#xA;M810.206299,697.869751 &#xA;&#x9;C809.984741,697.883972 810.005859,697.414978 810.023743,697.180664 &#xA;&#x9;C810.258240,697.130554 810.483398,697.306824 810.677490,697.512390 &#xA;&#x9;C810.695374,697.531311 810.515747,697.736694 810.206299,697.869751 &#xA;z"/>
  <path fill="#FEFEFE" stroke="none" d="&#xA;M927.667236,207.527039 &#xA;&#x9;C927.912537,207.527115 928.302917,207.756454 928.431274,208.075394 &#xA;&#x9;C928.050293,208.028763 927.931274,207.892532 927.667236,207.527039 &#xA;z"/>
  <path fill="#1A7CDC" stroke="none" d="&#xA;M521.533020,821.211914 &#xA;&#x9;C520.654846,821.426941 520.085205,821.491394 519.515625,821.555786 &#xA;&#x9;C519.385925,821.200073 519.256287,820.844299 519.126648,820.488586 &#xA;&#x9;C522.396790,818.874329 525.666931,817.260071 528.937073,815.645813 &#xA;&#x9;C529.214783,816.202087 529.492493,816.758423 529.770203,817.314697 &#xA;&#x9;C527.127319,818.563538 524.484436,819.812378 521.533020,821.211914 &#xA;z"/>
  <path fill="#1A7CDC" stroke="none" d="&#xA;M532.292603,815.133301 &#xA;&#x9;C532.604736,814.940247 532.948853,814.966187 533.292908,814.992188 &#xA;&#x9;C533.220398,815.232239 533.147949,815.472351 533.075500,815.712402 &#xA;&#x9;C532.825195,815.592407 532.574829,815.472351 532.292603,815.133301 &#xA;z"/>
  <path fill="#1A7CDC" stroke="none" d="&#xA;M535.716309,814.603760 &#xA;&#x9;C535.845642,814.439697 536.069824,814.415527 536.294006,814.391357 &#xA;&#x9;C536.132996,814.508789 535.972046,814.626221 535.716309,814.603760 &#xA;z"/>
  <path fill="#000000" stroke="none" d="&#xA;M718.330444,660.007935 &#xA;&#x9;C719.414795,658.986389 720.847534,657.954834 722.651367,656.954468 &#xA;&#x9;C721.574524,657.989746 720.126709,658.993835 718.330444,660.007935 &#xA;z"/>
  <path fill="#000000" stroke="none" d="&#xA;M713.157104,663.754272 &#xA;&#x9;C712.540710,663.743347 712.076172,663.479065 711.611572,663.214722 &#xA;&#x9;C712.525146,662.780640 713.438721,662.346558 714.687744,661.949219 &#xA;&#x9;C714.451721,662.491028 713.880249,662.995972 713.157104,663.754272 &#xA;z"/>
  <path fill="#000000" stroke="none" d="&#xA;M715.283875,661.922363 &#xA;&#x9;C715.755310,661.321106 716.526855,660.620544 717.660889,659.953003 &#xA;&#x9;C717.210205,660.598450 716.397095,661.210754 715.283875,661.922363 &#xA;z"/>
</svg>